<svg width="73" height="72" viewBox="0 0 73 72" fill="none" xmlns="http://www.w3.org/2000/svg">
<path d="M42.0338 30.2326L60.4071 34.4117L72.2664 22.5553L66.7079 16.9969L55.7137 21.4127L50.8479 16.5468L55.2666 5.55555L49.711 0L37.8518 11.8563L42.0338 30.2326Z" fill="#479991"/>
<path d="M42.0338 41.7674L37.8518 60.1408L49.711 72L55.2695 66.4415L50.8537 55.4473L55.7166 50.5815L66.7079 55.0002L72.2664 49.4447L60.4071 37.5854L42.0338 41.7674Z" fill="#479991"/>
<path d="M30.4989 41.7674L12.1256 37.5854L0.266357 49.4447L5.82483 55.0031L16.819 50.5873L21.682 55.4503L17.2632 66.4415L22.8217 72L34.678 60.1408L30.4989 41.7674Z" fill="#479991"/>
<path d="M30.4989 30.2326L34.678 11.8592L22.8217 0L17.2632 5.55847L21.679 16.5527L16.8132 21.4156L5.8219 16.9969L0.266357 22.5553L12.1227 34.4117L30.4989 30.2326Z" fill="#479991"/>
</svg>
