<svg width="251" height="72" viewBox="0 0 251 72" fill="none" xmlns="http://www.w3.org/2000/svg">
<path d="M42.0338 30.2326L60.4071 34.4117L72.2664 22.5553L66.7079 16.9969L55.7137 21.4127L50.8479 16.5468L55.2666 5.55555L49.711 0L37.8518 11.8563L42.0338 30.2326Z" fill="#479991"/>
<path d="M42.0338 41.7674L37.8518 60.1408L49.711 72L55.2695 66.4415L50.8537 55.4473L55.7166 50.5815L66.7079 55.0002L72.2664 49.4447L60.4071 37.5854L42.0338 41.7674Z" fill="#479991"/>
<path d="M30.4989 41.7674L12.1256 37.5854L0.266357 49.4447L5.82483 55.0031L16.819 50.5873L21.682 55.4503L17.2632 66.4415L22.8217 72L34.678 60.1408L30.4989 41.7674Z" fill="#479991"/>
<path d="M30.4989 30.2326L34.678 11.8592L22.8217 0L17.2632 5.55847L21.679 16.5527L16.8132 21.4156L5.8219 16.9969L0.266357 22.5553L12.1227 34.4117L30.4989 30.2326Z" fill="#479991"/>
<path d="M85.1982 22.0556H89.991V33.7775H103.674V22.0556H108.51V49.9444H103.674V37.6556H89.991V49.9444H85.1982V22.0556Z" fill="#1D483F"/>
<path d="M112.736 38.4826C112.736 32.5997 115.045 27.0208 123.804 27.0208C132.562 27.0208 134.871 32.5997 134.871 38.4826C134.871 44.3655 132.474 49.9444 123.76 49.9444C115.045 49.9444 112.733 44.4093 112.733 38.4826H112.736ZM123.763 46.1511C128.991 46.1511 130.125 42.7961 130.125 38.4826C130.125 34.1691 129.079 30.8141 123.807 30.8141C118.534 30.8141 117.488 34.3006 117.488 38.4826C117.488 42.6646 118.622 46.1511 123.763 46.1511Z" fill="#1D483F"/>
<path d="M138.533 27.6316H141.06L142.107 30.5073C142.805 29.0695 144.807 27.3248 148.948 27.3248C152.259 27.3248 154.133 28.5873 155.091 30.7674C155.746 29.198 157.791 27.3248 162.02 27.3248C168.119 27.3248 169.385 31.5944 169.385 36.8256V49.9415H164.68V36.5626C164.68 33.4239 164.113 31.2467 160.541 31.2467C156.97 31.2467 156.316 33.383 156.316 36.5626V49.9415H151.61V36.5626C151.61 33.4239 151.044 31.2467 147.469 31.2467C143.895 31.2467 143.2 33.383 143.2 36.5626V49.9415H138.536V27.6316H138.533Z" fill="#1D483F"/>
<path d="M172.778 38.4388C172.778 32.4682 175.042 27.0208 183.933 27.0208C192.168 27.0208 194.477 33.2953 193.913 40.312H177.614C177.877 44.1463 179.794 46.3702 183.804 46.3702C187.507 46.3702 188.684 44.5846 189.12 42.7961H194C193.609 46.5865 190.993 49.9415 183.976 49.9415C174.999 49.9415 172.778 44.4064 172.778 38.4388ZM189.12 36.6093V36.5216C189.164 33.4706 187.726 30.6388 183.5 30.6388C179.274 30.6388 177.877 33.3391 177.661 36.6093H189.123H189.12Z" fill="#1D483F"/>
<path d="M198.358 22.0556H217.313V25.9775H203.107V33.7775H216.266V37.6556H203.107V49.9444H198.358V22.0556Z" fill="#1D483F"/>
<path d="M225.624 21.3805C225.624 23.0229 224.291 24.3556 222.649 24.3556C221.006 24.3556 219.674 23.0229 219.674 21.3805C219.674 19.7381 221.006 18.4055 222.649 18.4055C224.291 18.4055 225.624 19.7381 225.624 21.3805ZM220.361 27.6345H224.978V49.9444H220.361V27.6316V27.6345Z" fill="#1D483F"/>
<path d="M235.961 38.3949L227.638 27.6316H232.997L238.88 35.7355L244.851 27.6316H250.079L241.8 38.3949L250.734 49.9415H245.111L238.924 40.9638L232.693 49.9415H227.03L235.964 38.3949H235.961Z" fill="#1D483F"/>
</svg>
