<svg width="32" height="43" viewBox="0 0 32 43" fill="none" xmlns="http://www.w3.org/2000/svg">
<rect x="4.5" y="19.5" width="23" height="23" rx="11.5" fill="#479991" stroke="white"/>
<rect x="6.5" y="21.5" width="19" height="19" rx="9.5" fill="#EFFAFF" stroke="white"/>
<path d="M16 0C9.384 0 4 5.42133 4 12.0867C4 21.5573 14.872 31.336 15.3347 31.7467C15.5253 31.916 15.7627 32 16 32C16.2373 32 16.4747 31.916 16.6653 31.748C17.128 31.336 28 21.5573 28 12.0867C28 5.42133 22.616 0 16 0ZM16 18.6667C12.324 18.6667 9.33333 15.676 9.33333 12C9.33333 8.324 12.324 5.33333 16 5.33333C19.676 5.33333 22.6667 8.324 22.6667 12C22.6667 15.676 19.676 18.6667 16 18.6667Z" fill="#479991"/>
</svg>
