<svg xmlns="http://www.w3.org/2000/svg" version="1.1" xmlns:xlink="http://www.w3.org/1999/xlink" width="32" height="32" x="0" y="0" viewBox="0 0 512 512" style="enable-background:new 0 0 512 512" xml:space="preserve" class=""><g><path d="M126.383 126.739c11.342 7.951 25.861 29.654 56.707 29.654h109.684c30.846 0 45.319-21.67 56.707-29.654h.001c1.303-30.304-7.663-60.572-26.87-90.856-11.583-18.264-32.042-28.995-53.67-28.995h-62.02c-21.627 0-42.086 10.731-53.669 28.995-19.208 30.284-28.174 60.552-26.87 90.856z" fill="#479991" opacity="1" data-original="#000000" class=""></path><path d="M132.935 166.193c4.346 46.362 20.612 115.863 77.424 146.419 16.846 9.061 37.346 9.229 54.213.208 51.337-27.455 72.187-88.369 77.776-146.568 16.745-.188 26.496-19.376 16.134-32.928-12.375 8.621-29.468 33.936-65.709 33.936H183.091c-36.24 0-53.327-25.308-65.71-33.936-10.162 13.282-1.025 32.213 15.554 32.869z" fill="#479991" opacity="1" data-original="#000000" class=""></path><path d="M393.24 491.976a87.798 87.798 0 0 1-10.649-4.401l-5.922 4.727c-3.314 2.608-7.389 4.02-11.518 4.02-4.944 0-9.562-1.956-13.094-5.433l-10.16-10.161c-6.574-6.628-7.226-17.168-1.413-24.556l4.727-5.977a90.574 90.574 0 0 1-4.401-10.596l-7.443-.869c-9.354-1.092-16.408-9.017-16.408-18.435v-14.218c0-9.399 7.063-17.331 16.408-18.363l7.443-.87a87.864 87.864 0 0 1 4.401-10.649l-4.673-5.868c-5.868-7.443-5.216-18.037 1.358-24.611l10.16-10.161c4.069-4.068 9.581-5.974 15.371-5.3 3.587.418 6.933 2.051 9.765 4.291l5.398 4.27a85.64 85.64 0 0 1 10.323-4.238c-18.438-9.468-28.708-11.414-67.438-21.055-10.163-2.531-20.813.523-28.39 7.752-38.324 36.574-79.421 36.907-118.129.87-7.891-7.346-18.865-10.34-29.227-7.363-11.091 3.186-23.756 6.618-36.947 10.07C46.717 342.457.644 402.221.644 470.679c0 18.853 15.321 34.174 34.229 34.174 0 0 254.867.053 360.813.109-.815-1.739-1.413-3.587-1.63-5.542zM456.585 487.565a80.073 80.073 0 0 1-10.622 4.398c-.886 6.812-.688 9.087-2.257 12.867 8.639-.711 16.353-4.629 21.977-10.565-1.099-.554-2.162-1.181-3.137-1.946z" fill="#479991" opacity="1" data-original="#000000" class=""></path><path d="m504.586 398.487-14.718-1.693c-1.766-7.654-4.783-15.013-8.978-21.636l9.272-11.628a7.647 7.647 0 0 0-.589-10.155l-10.156-10.155a7.646 7.646 0 0 0-10.155-.589l-11.628 9.272c-6.623-4.194-13.982-7.211-21.636-8.977l-1.693-14.718a7.582 7.582 0 0 0-7.58-6.77h-14.276c-3.9 0-7.138 2.87-7.58 6.77l-1.693 14.718c-7.654 1.767-15.013 4.783-21.636 8.979l-11.627-9.273a7.651 7.651 0 0 0-10.156.589l-10.156 10.155a7.65 7.65 0 0 0-.589 10.157l9.272 11.626c-4.195 6.624-7.212 13.983-8.978 21.636l-14.718 1.694c-3.9.44-6.77 3.68-6.77 7.579v14.277a7.584 7.584 0 0 0 6.77 7.581l14.718 1.691c1.766 7.654 4.783 15.013 8.978 21.636l-9.272 11.628a7.647 7.647 0 0 0 .589 10.155l10.156 10.155a7.648 7.648 0 0 0 10.156.589l11.627-9.272c6.623 4.194 13.982 7.212 21.636 8.977l1.693 14.718a7.583 7.583 0 0 0 7.58 6.77c7.362-.987 20.699 3.449 21.856-6.77L436 483.485c7.654-1.766 15.013-4.783 21.636-8.977l11.628 9.272a7.648 7.648 0 0 0 10.156-.589l10.155-10.155a7.648 7.648 0 0 0 .589-10.155l-9.272-11.628c4.195-6.624 7.212-13.982 8.978-21.636l14.718-1.693a7.583 7.583 0 0 0 6.77-7.581v-14.276a7.586 7.586 0 0 0-6.772-7.58zm-61.31 38.392c-13.113 13.113-34.323 13.113-47.436.001-13.113-13.026-13.113-34.323 0-47.347 13.113-13.113 34.323-13.113 47.436 0 13.024 13.024 13.024 34.321 0 47.346z" fill="#479991" opacity="1" data-original="#000000" class=""></path></g></svg>