<svg width="101" height="100" viewBox="0 0 101 100" fill="none" xmlns="http://www.w3.org/2000/svg">
<g clip-path="url(#clip0_164_1524)">
<path d="M51.3947 65.2787C60.3588 65.2787 67.6257 58.0119 67.6257 49.0477C67.6257 40.0836 60.3588 32.8167 51.3947 32.8167C42.4306 32.8167 35.1637 40.0836 35.1637 49.0477C35.1637 58.0119 42.4306 65.2787 51.3947 65.2787Z" fill="#FBD0B9"/>
<path d="M42.0771 67.679L41.3438 60.2667L55.9869 57.5286L64.6335 78.5812L49.5959 95.8745L38.8816 74.8219L42.0771 67.679Z" fill="#FBD0B9"/>
<path d="M41.1085 63.977L44.3098 64.7003C44.3098 64.7003 41.7933 56.7201 42.6474 55.9582C43.5016 55.1964 45.5948 56.3968 45.5948 56.3968L47.7944 58.863L50.4737 56.1351C50.4737 56.1351 53.3826 52.5181 54.5215 51.5023C55.6604 50.4865 53.831 46.7159 53.831 46.7159C53.831 46.7159 70.728 42.1597 64.4406 33.9641C64.4406 33.9641 60.7544 27.5384 59.5539 29.6316C58.3534 31.7248 56.922 28.4004 56.922 28.4004L52.551 29.2316C52.551 29.2316 43.9243 24.145 35.7365 35.0266C27.5487 45.9082 41.1085 63.977 41.1085 63.977Z" fill="#2F2E41"/>
<path d="M81.921 88.9004C73.0507 96.0922 62.077 100 50.5 100C39.9285 100 29.859 96.7407 21.436 90.6993C21.4511 90.5414 21.4661 90.3854 21.4793 90.2294C21.703 87.7858 21.9022 85.4098 22.0338 83.4399C22.5432 75.7914 40.3872 70.6937 40.3872 70.6937C40.3872 70.6937 40.468 70.7745 40.6297 70.9155C41.6146 71.7801 45.6127 74.9155 52.624 75.7914C58.8759 76.5734 60.9342 72.8647 61.5564 71.0884C61.7443 70.547 61.8007 70.1843 61.8007 70.1843L80.1541 78.8516C81.3515 80.5621 81.8195 84.2463 81.9116 88.3873C81.9154 88.5583 81.9192 88.7275 81.921 88.9004Z" fill="#E4E6E8"/>
</g>
<defs>
<clipPath id="clip0_164_1524">
<rect width="100" height="100" fill="white" transform="translate(0.5)"/>
</clipPath>
</defs>
</svg>
