<svg width="14" height="14" viewBox="0 0 14 14" fill="none" xmlns="http://www.w3.org/2000/svg">
<path d="M6.11851 11.4544H6.11356C6.08166 11.4537 6.05022 11.4466 6.02113 11.4335C5.99204 11.4204 5.96591 11.4015 5.94429 11.3781L1.47919 6.52286C1.44205 6.48249 1.42009 6.43048 1.41705 6.37572C1.41401 6.32095 1.43008 6.26683 1.46252 6.2226C1.49497 6.17838 1.54176 6.14679 1.5949 6.1332C1.64804 6.11962 1.70424 6.12489 1.75393 6.14812L5.84065 8.06166C5.87502 8.07781 5.91565 8.07 5.94195 8.04265L12.1758 1.52729C12.2602 1.43901 12.3982 1.42937 12.494 1.50541C12.5899 1.58145 12.612 1.71791 12.5451 1.82026L6.34403 11.3197C6.33518 11.3335 6.32476 11.346 6.3133 11.3578L6.28596 11.3851C6.24146 11.4294 6.18128 11.4543 6.11851 11.4544Z" fill="white"/>
</svg>
