<svg width="18" height="20" viewBox="0 0 18 20" fill="none" xmlns="http://www.w3.org/2000/svg">
<path d="M13.5714 20C15.5407 20 17.1429 18.3979 17.1429 16.4286V3.57143C17.1429 1.60214 15.5407 0 13.5714 0H3.57143C1.60214 0 0 1.60214 0 3.57143V16.4286C0 18.3979 1.60214 20 3.57143 20H13.5714ZM1.42857 3.57143C1.42857 2.39 2.39 1.42857 3.57143 1.42857H13.5714C14.7529 1.42857 15.7143 2.39 15.7143 3.57143V16.4286C15.7143 17.61 14.7529 18.5714 13.5714 18.5714H3.57143C2.39 18.5714 1.42857 17.61 1.42857 16.4286V3.57143Z" fill="#479991"/>
<path d="M7.14286 10.7143H12.8571C13.0466 10.7143 13.2283 10.639 13.3622 10.5051C13.4962 10.3711 13.5714 10.1894 13.5714 10C13.5714 9.81057 13.4962 9.62889 13.3622 9.49493C13.2283 9.36098 13.0466 9.28572 12.8571 9.28572H7.14286C6.95342 9.28572 6.77174 9.36098 6.63778 9.49493C6.50383 9.62889 6.42857 9.81057 6.42857 10C6.42857 10.1894 6.50383 10.3711 6.63778 10.5051C6.77174 10.639 6.95342 10.7143 7.14286 10.7143ZM7.14286 7.14287H12.8571C13.0466 7.14287 13.2283 7.06761 13.3622 6.93366C13.4962 6.7997 13.5714 6.61802 13.5714 6.42858C13.5714 6.23914 13.4962 6.05746 13.3622 5.9235C13.2283 5.78955 13.0466 5.71429 12.8571 5.71429H7.14286C6.95342 5.71429 6.77174 5.78955 6.63778 5.9235C6.50383 6.05746 6.42857 6.23914 6.42857 6.42858C6.42857 6.61802 6.50383 6.7997 6.63778 6.93366C6.77174 7.06761 6.95342 7.14287 7.14286 7.14287ZM7.14286 14.2857H12.8571C13.0466 14.2857 13.2283 14.2105 13.3622 14.0765C13.4962 13.9426 13.5714 13.7609 13.5714 13.5714C13.5714 13.382 13.4962 13.2003 13.3622 13.0664C13.2283 12.9324 13.0466 12.8572 12.8571 12.8572H7.14286C6.95342 12.8572 6.77174 12.9324 6.63778 13.0664C6.50383 13.2003 6.42857 13.382 6.42857 13.5714C6.42857 13.7609 6.50383 13.9426 6.63778 14.0765C6.77174 14.2105 6.95342 14.2857 7.14286 14.2857ZM4.3 7.14287C4.48944 7.14287 4.67112 7.06761 4.80508 6.93366C4.93903 6.7997 5.01429 6.61802 5.01429 6.42858C5.01429 6.23914 4.93903 6.05746 4.80508 5.9235C4.67112 5.78955 4.48944 5.71429 4.3 5.71429H4.29286C3.89857 5.71429 3.58215 6.03429 3.58215 6.42858C3.58215 6.82287 3.90572 7.14287 4.3 7.14287ZM4.3 10.7143C4.48944 10.7143 4.67112 10.639 4.80508 10.5051C4.93903 10.3711 5.01429 10.1894 5.01429 10C5.01429 9.81057 4.93903 9.62889 4.80508 9.49493C4.67112 9.36098 4.48944 9.28572 4.3 9.28572H4.29286C3.89857 9.28572 3.58215 9.60572 3.58215 10C3.58215 10.3943 3.90572 10.7143 4.3 10.7143ZM4.3 14.2857C4.48944 14.2857 4.67112 14.2105 4.80508 14.0765C4.93903 13.9426 5.01429 13.7609 5.01429 13.5714C5.01429 13.382 4.93903 13.2003 4.80508 13.0664C4.67112 12.9324 4.48944 12.8572 4.3 12.8572H4.29286C3.89857 12.8572 3.58215 13.1772 3.58215 13.5714C3.58215 13.9657 3.90572 14.2857 4.3 14.2857Z" fill="#479991"/>
</svg>
