<svg width="20" height="18" viewBox="0 0 20 18" fill="none" xmlns="http://www.w3.org/2000/svg">
<path d="M17.5 9.35332V8.16666C17.5 6.17753 16.7098 4.26988 15.3033 2.86336C13.8968 1.45683 11.9891 0.666656 10 0.666656C8.01088 0.666656 6.10322 1.45683 4.6967 2.86336C3.29018 4.26988 2.5 6.17753 2.5 8.16666V9.35332C1.62597 9.73818 0.910667 10.4116 0.473851 11.2609C0.0370351 12.1101 -0.094783 13.0837 0.100464 14.0185C0.295711 14.9534 0.806172 15.7928 1.54639 16.3962C2.28661 16.9996 3.21166 17.3305 4.16667 17.3333C4.60869 17.3333 5.03262 17.1577 5.34518 16.8452C5.65774 16.5326 5.83333 16.1087 5.83333 15.6667V10.6667C5.83333 10.2246 5.65774 9.80071 5.34518 9.48815C5.03262 9.17559 4.60869 8.99999 4.16667 8.99999V8.16666C4.16667 6.61956 4.78125 5.13583 5.87521 4.04187C6.96917 2.9479 8.4529 2.33332 10 2.33332C11.5471 2.33332 13.0308 2.9479 14.1248 4.04187C15.2188 5.13583 15.8333 6.61956 15.8333 8.16666V8.99999C15.3913 8.99999 14.9674 9.17559 14.6548 9.48815C14.3423 9.80071 14.1667 10.2246 14.1667 10.6667V15.6667H11.6667C11.4457 15.6667 11.2337 15.7545 11.0774 15.9107C10.9211 16.067 10.8333 16.279 10.8333 16.5C10.8333 16.721 10.9211 16.933 11.0774 17.0892C11.2337 17.2455 11.4457 17.3333 11.6667 17.3333H15.8333C16.7883 17.3305 17.7134 16.9996 18.4536 16.3962C19.1938 15.7928 19.7043 14.9534 19.8995 14.0185C20.0948 13.0837 19.963 12.1101 19.5261 11.2609C19.0893 10.4116 18.374 9.73818 17.5 9.35332ZM4.16667 15.6667C3.50362 15.6667 2.86774 15.4033 2.3989 14.9344C1.93006 14.4656 1.66667 13.8297 1.66667 13.1667C1.66667 12.5036 1.93006 11.8677 2.3989 11.3989C2.86774 10.93 3.50362 10.6667 4.16667 10.6667V15.6667ZM15.8333 15.6667V10.6667C16.4964 10.6667 17.1323 10.93 17.6011 11.3989C18.0699 11.8677 18.3333 12.5036 18.3333 13.1667C18.3333 13.8297 18.0699 14.4656 17.6011 14.9344C17.1323 15.4033 16.4964 15.6667 15.8333 15.6667Z" fill="#479991"/>
</svg>
