<svg width="20" height="20" viewBox="0 0 20 20" fill="none" xmlns="http://www.w3.org/2000/svg">
<g clip-path="url(#clip0_1_1910)">
<path d="M10 0.3125C8.084 0.3125 6.21102 0.880662 4.61792 1.94514C3.02482 3.00961 1.78315 4.52259 1.04992 6.29275C0.316697 8.06291 0.124853 10.0107 0.498647 11.8899C0.872441 13.7691 1.79509 15.4953 3.14991 16.8501C4.50473 18.2049 6.23088 19.1276 8.11007 19.5014C9.98926 19.8751 11.9371 19.6833 13.7072 18.9501C15.4774 18.2169 16.9904 16.9752 18.0549 15.3821C19.1193 13.789 19.6875 11.916 19.6875 10C19.6846 7.4316 18.663 4.96923 16.8469 3.1531C15.0308 1.33697 12.5684 0.315395 10 0.3125ZM10 19.0625C8.20761 19.0625 6.45547 18.531 4.96515 17.5352C3.47483 16.5394 2.31327 15.124 1.62735 13.4681C0.941427 11.8121 0.761959 9.98995 1.11164 8.23199C1.46132 6.47404 2.32444 4.85926 3.59185 3.59184C4.85926 2.32443 6.47404 1.46131 8.232 1.11163C9.98995 0.761955 11.8121 0.941423 13.4681 1.62734C15.124 2.31326 16.5394 3.47482 17.5352 4.96514C18.531 6.45546 19.0625 8.20761 19.0625 10C19.0598 12.4027 18.1041 14.7062 16.4051 16.4051C14.7062 18.1041 12.4027 19.0598 10 19.0625Z" fill="#FF0005"/>
<path d="M10.625 14.6875H5.9375C5.85464 14.6874 5.7752 14.6545 5.71661 14.5959C5.65802 14.5373 5.62507 14.4579 5.625 14.375V13.75C5.62583 13.0043 5.92241 12.2894 6.44968 11.7622C6.97694 11.2349 7.69183 10.9383 8.4375 10.9375H9.6875C10.4358 10.9397 11.1603 10.6741 11.7299 10.1888C12.2994 9.70338 12.6765 9.03022 12.793 8.291C12.9095 7.55178 12.7577 6.79528 12.3649 6.15826C11.9722 5.52125 11.3645 5.04576 10.6518 4.81777C9.93902 4.58978 9.1682 4.62433 8.47869 4.91517C7.78918 5.20601 7.22648 5.73394 6.89232 6.40354C6.55816 7.07313 6.47459 7.84018 6.65673 8.56602C6.83887 9.29185 7.27469 9.92857 7.88541 10.3611C7.0809 10.4925 6.3492 10.9053 5.82075 11.526C5.2923 12.1467 5.00143 12.9348 5 13.75V14.375C5.00027 14.6236 5.09913 14.8619 5.27489 15.0376C5.45065 15.2134 5.68894 15.3122 5.9375 15.3125H10.625C10.7079 15.3125 10.7874 15.2796 10.846 15.221C10.9046 15.1624 10.9375 15.0829 10.9375 15C10.9375 14.9171 10.9046 14.8376 10.846 14.779C10.7874 14.7204 10.7079 14.6875 10.625 14.6875ZM7.1875 7.8125C7.1875 7.31805 7.33412 6.8347 7.60883 6.42357C7.88353 6.01245 8.27398 5.69202 8.73079 5.5028C9.18761 5.31358 9.69027 5.26407 10.1752 5.36054C10.6602 5.457 11.1056 5.6951 11.4553 6.04473C11.8049 6.39436 12.043 6.83982 12.1395 7.32477C12.2359 7.80973 12.1864 8.31239 11.9972 8.76921C11.808 9.22602 11.4875 9.61647 11.0764 9.89117C10.6653 10.1659 10.182 10.3125 9.6875 10.3125C9.02469 10.3117 8.38925 10.0481 7.92057 9.57943C7.4519 9.11075 7.18826 8.47531 7.1875 7.8125Z" fill="#FF0005"/>
<path d="M14.9084 11.3416C14.8794 11.3125 14.845 11.2895 14.8071 11.2738C14.7692 11.2581 14.7285 11.25 14.6875 11.25C14.6465 11.25 14.6058 11.2581 14.5679 11.2738C14.53 11.2895 14.4956 11.3125 14.4666 11.3416L13.3617 12.4464L12.2568 11.3416C12.1979 11.2844 12.1189 11.2528 12.0368 11.2534C11.9548 11.254 11.8763 11.2869 11.8182 11.3449C11.7602 11.4029 11.7273 11.4814 11.7267 11.5635C11.7261 11.6455 11.7577 11.7245 11.8149 11.7834L12.9198 12.8884L11.8149 13.9932C11.7575 14.0521 11.7256 14.1312 11.7261 14.2134C11.7267 14.2956 11.7595 14.3742 11.8177 14.4324C11.8758 14.4905 11.9545 14.5234 12.0367 14.5239C12.1188 14.5244 12.1979 14.4925 12.2568 14.4351L13.3617 13.3302L14.4666 14.4351C14.5257 14.4926 14.605 14.5248 14.6875 14.5248C14.77 14.5248 14.8493 14.4926 14.9084 14.4351C14.967 14.3765 15 14.2971 15 14.2142C15 14.1313 14.967 14.0518 14.9084 13.9932L13.8036 12.8884L14.9084 11.7834C14.9375 11.7544 14.9605 11.72 14.9762 11.6821C14.9919 11.6442 15 11.6035 15 11.5625C15 11.5215 14.9919 11.4808 14.9762 11.4429C14.9605 11.405 14.9375 11.3706 14.9084 11.3416Z" fill="#FF0005"/>
</g>
<defs>
<clipPath id="clip0_1_1910">
<rect width="20" height="20" fill="white"/>
</clipPath>
</defs>
</svg>
