<svg width="15" height="17" viewBox="0 0 15 17" fill="none" xmlns="http://www.w3.org/2000/svg">
<path d="M13.5007 3.16667H11.434C11.2793 2.41428 10.8699 1.73823 10.2748 1.25248C9.67977 0.766727 8.93545 0.50097 8.16732 0.5L6.83398 0.5C6.06585 0.50097 5.32153 0.766727 4.72648 1.25248C4.13144 1.73823 3.72205 2.41428 3.56732 3.16667H1.50065C1.32384 3.16667 1.15427 3.2369 1.02925 3.36193C0.904222 3.48695 0.833984 3.65652 0.833984 3.83333C0.833984 4.01014 0.904222 4.17971 1.02925 4.30474C1.15427 4.42976 1.32384 4.5 1.50065 4.5H2.16732V13.1667C2.16838 14.0504 2.51991 14.8976 3.1448 15.5225C3.76969 16.1474 4.61692 16.4989 5.50065 16.5H9.50065C10.3844 16.4989 11.2316 16.1474 11.8565 15.5225C12.4814 14.8976 12.8329 14.0504 12.834 13.1667V4.5H13.5007C13.6775 4.5 13.847 4.42976 13.9721 4.30474C14.0971 4.17971 14.1673 4.01014 14.1673 3.83333C14.1673 3.65652 14.0971 3.48695 13.9721 3.36193C13.847 3.2369 13.6775 3.16667 13.5007 3.16667ZM6.83398 1.83333H8.16732C8.58083 1.83384 8.98407 1.96225 9.32173 2.20096C9.65938 2.43967 9.91493 2.77699 10.0533 3.16667H4.94798C5.08637 2.77699 5.34192 2.43967 5.67958 2.20096C6.01723 1.96225 6.42047 1.83384 6.83398 1.83333ZM11.5007 13.1667C11.5007 13.6971 11.2899 14.2058 10.9149 14.5809C10.5398 14.956 10.0311 15.1667 9.50065 15.1667H5.50065C4.97022 15.1667 4.46151 14.956 4.08644 14.5809C3.71136 14.2058 3.50065 13.6971 3.50065 13.1667V4.5H11.5007V13.1667Z" fill="#DC3545"/>
<path d="M6.16667 12.5C6.34348 12.5 6.51305 12.4298 6.63807 12.3047C6.7631 12.1797 6.83333 12.0101 6.83333 11.8333V7.83332C6.83333 7.65651 6.7631 7.48694 6.63807 7.36192C6.51305 7.23689 6.34348 7.16666 6.16667 7.16666C5.98986 7.16666 5.82029 7.23689 5.69526 7.36192C5.57024 7.48694 5.5 7.65651 5.5 7.83332V11.8333C5.5 12.0101 5.57024 12.1797 5.69526 12.3047C5.82029 12.4298 5.98986 12.5 6.16667 12.5ZM8.83333 12.5C9.01014 12.5 9.17971 12.4298 9.30474 12.3047C9.42976 12.1797 9.5 12.0101 9.5 11.8333V7.83332C9.5 7.65651 9.42976 7.48694 9.30474 7.36192C9.17971 7.23689 9.01014 7.16666 8.83333 7.16666C8.65652 7.16666 8.48695 7.23689 8.36193 7.36192C8.2369 7.48694 8.16667 7.65651 8.16667 7.83332V11.8333C8.16667 12.0101 8.2369 12.1797 8.36193 12.3047C8.48695 12.4298 8.65652 12.5 8.83333 12.5Z" fill="#DC3545"/>
</svg>
