<svg width="20" height="20" viewBox="0 0 20 20" fill="none" xmlns="http://www.w3.org/2000/svg">
<path d="M7.5 9.16655C7.27899 9.16655 7.06702 9.07875 6.91074 8.92247C6.75446 8.76619 6.66667 8.55423 6.66667 8.33321C6.66667 7.24321 7.53167 6.76738 7.90083 6.56405C8.1425 6.43155 8.39667 6.11821 8.31917 5.67571C8.28737 5.51227 8.20748 5.36205 8.08974 5.24431C7.972 5.12657 7.82178 5.04668 7.65833 5.01488C7.53666 4.99097 7.41118 4.99473 7.29116 5.02588C7.17114 5.05704 7.05967 5.1148 6.965 5.19488C6.87134 5.27293 6.79604 5.37068 6.74448 5.48116C6.69291 5.59164 6.66634 5.71213 6.66667 5.83405C6.66667 6.05506 6.57887 6.26702 6.42259 6.4233C6.26631 6.57958 6.05435 6.66738 5.83333 6.66738C5.61232 6.66738 5.40036 6.57958 5.24408 6.4233C5.0878 6.26702 5 6.05506 5 5.83405C4.9994 5.46779 5.07939 5.10589 5.2343 4.77401C5.38921 4.44213 5.61524 4.14839 5.89636 3.91363C6.17749 3.67887 6.50682 3.50884 6.861 3.41559C7.21519 3.32234 7.58555 3.30816 7.94583 3.37405C8.44559 3.46733 8.90544 3.70964 9.26492 4.06913C9.62441 4.42861 9.86672 4.88845 9.96 5.38822C10.0515 5.90367 9.97969 6.43482 9.7547 6.90751C9.52971 7.3802 9.16273 7.77083 8.705 8.02488C8.3325 8.22988 8.3325 8.28988 8.3325 8.33405C8.3325 8.55506 8.2447 8.76702 8.08842 8.9233C7.93214 9.07958 7.72018 9.16738 7.49917 9.16738L7.5 9.16655ZM7.5 9.99988C7.22373 9.99988 6.95878 10.1096 6.76343 10.305C6.56808 10.5003 6.45833 10.7653 6.45833 11.0415C6.45833 11.3178 6.56808 11.5828 6.76343 11.7781C6.95878 11.9735 7.22373 12.0832 7.5 12.0832C7.77627 12.0832 8.04122 11.9735 8.23657 11.7781C8.43192 11.5828 8.54167 11.3178 8.54167 11.0415C8.54167 10.7653 8.43192 10.5003 8.23657 10.305C8.04122 10.1096 7.77627 9.99988 7.5 9.99988ZM16.6633 7.56655C16.6588 8.19477 16.5896 8.82086 16.4567 9.43488C17.042 9.90217 17.5146 10.4952 17.8395 11.1701C18.1643 11.8449 18.3331 12.5842 18.3333 13.3332V17.4999C18.3333 17.7209 18.2455 17.9329 18.0893 18.0891C17.933 18.2454 17.721 18.3332 17.5 18.3332H13.3333C12.5844 18.333 11.845 18.1642 11.1702 17.8394C10.4954 17.5145 9.90229 17.0419 9.435 16.4565C8.83167 16.5865 8.2075 16.6582 7.56667 16.6632C8.72083 18.654 10.8708 19.9999 13.3333 19.9999H17.5C18.163 19.9999 18.7989 19.7365 19.2678 19.2676C19.7366 18.7988 20 18.1629 20 17.4999V13.3332C20 10.8707 18.6542 8.72071 16.6633 7.56655ZM14.9808 8.04238C15.135 5.86488 14.3408 3.73405 12.8033 2.19571C11.2658 0.657382 9.13667 -0.139285 6.9575 0.0190484C3.18583 0.285715 0 3.82405 0 7.74655V11.9449C0.000439846 12.7543 0.321875 13.5304 0.893802 14.1031C1.46573 14.6758 2.24145 14.9983 3.05083 14.9999H6.78167C11.1042 14.9999 14.7058 11.944 14.9808 8.04238ZM11.625 3.37488C12.2169 3.96763 12.6745 4.68066 12.9668 5.46568C13.2591 6.2507 13.3793 7.08937 13.3192 7.92488C13.1083 10.9065 10.1758 13.3324 6.78167 13.3324H3.05083C2.68328 13.3315 2.33109 13.1848 2.07158 12.9245C1.81207 12.6642 1.66644 12.3116 1.66667 11.944V7.74571C1.66667 4.66571 4.14333 1.88822 7.075 1.68072C7.91056 1.62007 8.74939 1.73999 9.53449 2.03232C10.3196 2.32465 11.0326 2.78254 11.625 3.37488Z" fill="#479991"/>
</svg>
