<svg width="20" height="21" viewBox="0 0 20 21" fill="none" xmlns="http://www.w3.org/2000/svg">
<g clip-path="url(#clip0_143_2032)">
<path d="M10 18C10 18.221 9.9122 18.433 9.75592 18.5893C9.59964 18.7455 9.38768 18.8333 9.16667 18.8333H4.16667C1.86917 18.8333 0 16.9642 0 14.6667V4.66667C0 2.36917 1.86917 0.5 4.16667 0.5H14.1667C16.4642 0.5 18.3333 2.36917 18.3333 4.66667V9.66667C18.3333 9.88768 18.2455 10.0996 18.0893 10.2559C17.933 10.4122 17.721 10.5 17.5 10.5C17.279 10.5 17.067 10.4122 16.9107 10.2559C16.7545 10.0996 16.6667 9.88768 16.6667 9.66667V4.66667C16.6667 3.28833 15.545 2.16667 14.1667 2.16667H4.16667C2.78833 2.16667 1.66667 3.28833 1.66667 4.66667V10.4658L4.00667 8.12583C4.62118 7.51223 5.45409 7.16758 6.3225 7.16758C7.19091 7.16758 8.02382 7.51223 8.63833 8.12583L13.0892 12.5767C13.2454 12.7329 13.3332 12.9449 13.3332 13.1658C13.3332 13.3868 13.2454 13.5987 13.0892 13.755C12.9329 13.9113 12.721 13.999 12.5 13.999C12.279 13.999 12.0671 13.9113 11.9108 13.755L7.46 9.30417C7.15782 9.00342 6.74884 8.83458 6.3225 8.83458C5.89616 8.83458 5.48718 9.00342 5.185 9.30417L1.66667 12.8225V14.6667C1.66667 16.045 2.78833 17.1667 4.16667 17.1667H9.16667C9.38768 17.1667 9.59964 17.2545 9.75592 17.4107C9.9122 17.567 10 17.779 10 18ZM12.5 3.41667C13.8783 3.41667 15 4.53833 15 5.91667C15 7.295 13.8783 8.41667 12.5 8.41667C11.1217 8.41667 10 7.295 10 5.91667C10 4.53833 11.1217 3.41667 12.5 3.41667ZM12.5 5.08333C12.2854 5.09293 12.0828 5.18492 11.9344 5.34015C11.786 5.49538 11.7031 5.70189 11.7031 5.91667C11.7031 6.13145 11.786 6.33795 11.9344 6.49318C12.0828 6.64841 12.2854 6.7404 12.5 6.75C12.7146 6.7404 12.9172 6.64841 13.0656 6.49318C13.214 6.33795 13.2969 6.13145 13.2969 5.91667C13.2969 5.70189 13.214 5.49538 13.0656 5.34015C12.9172 5.18492 12.7146 5.09293 12.5 5.08333ZM19.1667 15.5H16.6667V13C16.6667 12.779 16.5789 12.567 16.4226 12.4107C16.2663 12.2545 16.0543 12.1667 15.8333 12.1667C15.6123 12.1667 15.4004 12.2545 15.2441 12.4107C15.0878 12.567 15 12.779 15 13V15.5H12.5C12.279 15.5 12.067 15.5878 11.9107 15.7441C11.7545 15.9004 11.6667 16.1123 11.6667 16.3333C11.6667 16.5543 11.7545 16.7663 11.9107 16.9226C12.067 17.0789 12.279 17.1667 12.5 17.1667H15V19.6667C15 19.8877 15.0878 20.0996 15.2441 20.2559C15.4004 20.4122 15.6123 20.5 15.8333 20.5C16.0543 20.5 16.2663 20.4122 16.4226 20.2559C16.5789 20.0996 16.6667 19.8877 16.6667 19.6667V17.1667H19.1667C19.3877 17.1667 19.5996 17.0789 19.7559 16.9226C19.9122 16.7663 20 16.5543 20 16.3333C20 16.1123 19.9122 15.9004 19.7559 15.7441C19.5996 15.5878 19.3877 15.5 19.1667 15.5Z" fill="#479991"/>
</g>
<defs>
<clipPath id="clip0_143_2032">
<rect width="20" height="20" fill="white" transform="translate(0 0.5)"/>
</clipPath>
</defs>
</svg>
