<svg width="20" height="21" viewBox="0 0 20 21" fill="none" xmlns="http://www.w3.org/2000/svg">
<path d="M9.16652 9.17833V10.5C9.16652 10.721 9.25432 10.933 9.4106 11.0893C9.56688 11.2455 9.77884 11.3333 9.99986 11.3333H11.3215C11.7594 11.3344 12.1931 11.2486 12.5976 11.081C13.0022 10.9133 13.3694 10.6671 13.6782 10.3567L19.2674 4.7675C19.739 4.295 19.9999 3.6675 19.9999 2.99917C19.9999 2.33083 19.739 1.70333 19.2674 1.23167C18.7983 0.763397 18.1626 0.50039 17.4999 0.50039C16.8371 0.50039 16.2014 0.763397 15.7324 1.23167L10.1432 6.82083C9.83256 7.12949 9.58629 7.49673 9.41864 7.90127C9.25099 8.30581 9.16529 8.74043 9.16652 9.17833ZM10.8332 9.17833C10.8332 8.74 11.0115 8.31 11.3215 8L16.9107 2.41083C17.0679 2.25903 17.2784 2.17504 17.4969 2.17694C17.7154 2.17884 17.9244 2.26648 18.0789 2.42098C18.2334 2.57549 18.321 2.7845 18.3229 3.003C18.3248 3.2215 18.2408 3.432 18.089 3.58917L12.4999 9.17833C12.1849 9.49333 11.7665 9.66667 11.3215 9.66667H10.8332V9.17833ZM19.9999 8.83333V13.8333C19.9999 15.6717 18.5049 17.1667 16.6665 17.1667H14.289L11.0832 19.8167C10.7861 20.0788 10.4028 20.2224 10.0065 20.22C9.60986 20.22 9.21069 20.08 8.89236 19.7967L5.76819 17.1667H3.33236C1.49402 17.1667 -0.000976562 15.6717 -0.000976562 13.8333V3.83333C0.000346456 2.94954 0.352075 2.10234 0.97709 1.47748C1.6021 0.852619 2.4494 0.501102 3.33319 0.5L11.6665 0.5C11.8875 0.5 12.0995 0.587797 12.2558 0.744078C12.4121 0.900358 12.4999 1.11232 12.4999 1.33333C12.4999 1.55435 12.4121 1.76631 12.2558 1.92259C12.0995 2.07887 11.8875 2.16667 11.6665 2.16667H3.33319C2.41402 2.16667 1.66652 2.91417 1.66652 3.83333V13.8333C1.66652 14.7525 2.41402 15.5 3.33319 15.5H6.07319C6.26902 15.5 6.45986 15.5692 6.61069 15.6958L9.98402 18.5367L13.4599 15.6908C13.6092 15.5674 13.7969 15.4999 13.9907 15.5H16.6674C17.5865 15.5 18.334 14.7525 18.334 13.8333V8.83333C18.334 8.61232 18.4218 8.40036 18.5781 8.24408C18.7344 8.0878 18.9463 8 19.1674 8C19.3884 8 19.6003 8.0878 19.7566 8.24408C19.9129 8.40036 19.9999 8.61232 19.9999 8.83333Z" fill="#479991"/>
</svg>
