<svg width="20" height="21" viewBox="0 0 20 21" fill="none" xmlns="http://www.w3.org/2000/svg">
<g clip-path="url(#clip0_141_2027)">
<path d="M9.99998 17.1667C11.7675 17.1647 13.462 16.4617 14.7118 15.2119C15.9616 13.962 16.6647 12.2675 16.6666 10.5V7.16667C16.6666 5.39856 15.9643 3.70286 14.714 2.45262C13.4638 1.20238 11.7681 0.5 9.99998 0.5C8.23187 0.5 6.53618 1.20238 5.28593 2.45262C4.03569 3.70286 3.33331 5.39856 3.33331 7.16667V10.5C3.3353 12.2675 4.03831 13.962 5.28813 15.2119C6.53794 16.4617 8.23248 17.1647 9.99998 17.1667ZM9.99998 2.16667C11.1804 2.16886 12.3221 2.58822 13.2233 3.35066C14.1245 4.11311 14.7273 5.16955 14.925 6.33333H12.5C12.279 6.33333 12.067 6.42113 11.9107 6.57741C11.7544 6.73369 11.6666 6.94565 11.6666 7.16667C11.6666 7.38768 11.7544 7.59964 11.9107 7.75592C12.067 7.9122 12.279 8 12.5 8H15V9.66667H12.5C12.279 9.66667 12.067 9.75446 11.9107 9.91074C11.7544 10.067 11.6666 10.279 11.6666 10.5C11.6666 10.721 11.7544 10.933 11.9107 11.0893C12.067 11.2455 12.279 11.3333 12.5 11.3333H14.925C14.7291 12.4979 14.1269 13.5554 13.2253 14.3181C12.3236 15.0807 11.1809 15.4992 9.99998 15.4992C8.81905 15.4992 7.67632 15.0807 6.77468 14.3181C5.87305 13.5554 5.27084 12.4979 5.07498 11.3333H7.49998C7.72099 11.3333 7.93295 11.2455 8.08923 11.0893C8.24552 10.933 8.33331 10.721 8.33331 10.5C8.33331 10.279 8.24552 10.067 8.08923 9.91074C7.93295 9.75446 7.72099 9.66667 7.49998 9.66667H4.99998V8H7.49998C7.72099 8 7.93295 7.9122 8.08923 7.75592C8.24552 7.59964 8.33331 7.38768 8.33331 7.16667C8.33331 6.94565 8.24552 6.73369 8.08923 6.57741C7.93295 6.42113 7.72099 6.33333 7.49998 6.33333H5.07498C5.2727 5.16955 5.87542 4.11311 6.77662 3.35066C7.67783 2.58822 8.81952 2.16886 9.99998 2.16667Z" fill="#479991"/>
<path d="M19.1667 10.5C18.9457 10.5 18.7337 10.5878 18.5774 10.7441C18.4211 10.9004 18.3333 11.1123 18.3333 11.3333C18.3311 13.3218 17.5402 15.2282 16.1342 16.6342C14.7282 18.0402 12.8218 18.8311 10.8333 18.8333H9.16667C7.17829 18.8309 5.27204 18.04 3.86604 16.634C2.46005 15.228 1.66909 13.3217 1.66667 11.3333C1.66667 11.1123 1.57887 10.9004 1.42259 10.7441C1.26631 10.5878 1.05435 10.5 0.833333 10.5C0.61232 10.5 0.400358 10.5878 0.244078 10.7441C0.0877974 10.9004 0 11.1123 0 11.3333C0.00286706 13.7636 0.969559 16.0935 2.68802 17.812C4.40648 19.5304 6.7364 20.4971 9.16667 20.5H10.8333C13.2636 20.4971 15.5935 19.5304 17.312 17.812C19.0304 16.0935 19.9971 13.7636 20 11.3333C20 11.1123 19.9122 10.9004 19.7559 10.7441C19.5996 10.5878 19.3877 10.5 19.1667 10.5Z" fill="#479991"/>
</g>
<defs>
<clipPath id="clip0_141_2027">
<rect width="20" height="20" fill="white" transform="translate(0 0.5)"/>
</clipPath>
</defs>
</svg>
