<svg width="24" height="25" viewBox="0 0 24 25" fill="none" xmlns="http://www.w3.org/2000/svg">
<path d="M12.2856 0.714233C5.82606 0.714233 0.571289 5.969 0.571289 12.4285C0.571289 18.888 5.82606 24.1428 12.2856 24.1428C18.7451 24.1428 23.9999 18.888 23.9999 12.4285C23.9999 5.969 18.7451 0.714233 12.2856 0.714233Z" fill="#479991"/>
<path d="M17.4106 13.4046H13.2617V17.5535C13.2617 18.0924 12.8245 18.5296 12.2856 18.5296C11.7467 18.5296 11.3094 18.0924 11.3094 17.5535V13.4046H7.16058C6.62166 13.4046 6.18445 12.9674 6.18445 12.4285C6.18445 11.8896 6.62166 11.4524 7.16058 11.4524H11.3094V7.30351C11.3094 6.76459 11.7467 6.32738 12.2856 6.32738C12.8245 6.32738 13.2617 6.76459 13.2617 7.30351V11.4524H17.4106C17.9495 11.4524 18.3867 11.8896 18.3867 12.4285C18.3867 12.9674 17.9495 13.4046 17.4106 13.4046Z" fill="#E4E6E8"/>
</svg>
