<svg width="22" height="24" viewBox="0 0 22 24" fill="none" xmlns="http://www.w3.org/2000/svg">
<path d="M11 24C13.5252 23.9976 15.9727 23.1264 17.9315 21.5327C19.8903 19.939 21.2411 17.7198 21.7572 15.2479C22.2732 12.776 21.923 10.2017 20.7654 7.95747C19.6078 5.7132 17.7133 3.93555 15.4 2.92301C15.2795 2.86967 15.1497 2.84066 15.0179 2.83766C14.8862 2.83466 14.7552 2.85772 14.6324 2.90552C14.5096 2.95333 14.3975 3.02492 14.3024 3.1162C14.2074 3.20748 14.1313 3.31663 14.0786 3.4374C14.0259 3.55816 13.9976 3.68815 13.9953 3.8199C13.993 3.95164 14.0167 4.08254 14.0652 4.20508C14.1136 4.32761 14.1858 4.43937 14.2776 4.53391C14.3694 4.62846 14.4789 4.70394 14.6 4.75601C16.495 5.58308 18.0475 7.03743 18.9964 8.87452C19.9452 10.7116 20.2326 12.8194 19.8101 14.8434C19.3877 16.8675 18.2812 18.6844 16.6767 19.9885C15.0722 21.2927 13.0676 22.0047 11 22.0047C8.93231 22.0047 6.9277 21.2927 5.32323 19.9885C3.71875 18.6844 2.61226 16.8675 2.18981 14.8434C1.76737 12.8194 2.05474 10.7116 3.0036 8.87452C3.95245 7.03743 5.50493 5.58308 7.39997 4.75601C7.52101 4.70394 7.63057 4.62846 7.72235 4.53391C7.81412 4.43937 7.88631 4.32761 7.93476 4.20508C7.9832 4.08254 8.00696 3.95164 8.00465 3.8199C8.00234 3.68815 7.97402 3.55816 7.92131 3.4374C7.86861 3.31663 7.79255 3.20748 7.69752 3.1162C7.60249 3.02492 7.49036 2.95333 7.36757 2.90552C7.24478 2.85772 7.11376 2.83466 6.98203 2.83766C6.8503 2.84066 6.72046 2.86967 6.59997 2.92301C4.28663 3.93555 2.39211 5.7132 1.23451 7.95747C0.0769072 10.2017 -0.273273 12.776 0.242765 15.2479C0.758804 17.7198 2.10963 19.939 4.06844 21.5327C6.02725 23.1264 8.47475 23.9976 11 24Z" fill="#777777"/>
<path d="M11 9.99999C11.2652 9.99999 11.5196 9.89464 11.7071 9.7071C11.8946 9.51956 12 9.26521 12 8.99999V0.999999C12 0.734783 11.8946 0.480429 11.7071 0.292893C11.5196 0.105357 11.2652 0 11 0C10.7348 0 10.4804 0.105357 10.2929 0.292893C10.1054 0.480429 10 0.734783 10 0.999999V8.99999C10 9.26521 10.1054 9.51956 10.2929 9.7071C10.4804 9.89464 10.7348 9.99999 11 9.99999Z" fill="#777777"/>
</svg>
