<svg width="24" height="24" viewBox="0 0 24 24" fill="none" xmlns="http://www.w3.org/2000/svg">
<path d="M8.95929 22.0013C9.48054 23.1734 10.6364 24 12.0005 24C13.3647 24 14.5205 23.1734 15.0418 22.0013C14.0799 22.0483 13.0796 22.08 12.0005 22.08C10.9215 22.08 9.92121 22.0483 8.95929 22.0013Z" fill="#479991"/>
<path d="M22.5884 16.92C21.3231 15.3245 19.1996 12.1882 19.1996 9.12C19.1996 6.07776 17.2451 3.34078 14.3996 2.3347C14.3651 1.04062 13.3014 0 12.0005 0C10.6988 0 9.63608 1.04062 9.60148 2.3347C6.75509 3.34078 4.80054 6.07776 4.80054 9.12C4.80054 12.1891 2.678 15.3245 1.41176 16.92C0.989372 17.4528 0.858778 18.1565 1.06329 18.8025C1.26298 19.4332 1.76023 19.9219 2.39384 20.1082C3.50361 20.4355 5.32278 20.8042 8.09722 20.9923C9.29815 21.0729 10.5894 21.12 12.0006 21.12C13.4108 21.12 14.702 21.0729 15.903 20.9923C18.6784 20.8042 20.4966 20.4355 21.6073 20.1082C22.2409 19.9219 22.7372 19.4333 22.9369 18.8025C23.1414 18.1565 23.0098 17.4528 22.5884 16.92Z" fill="#479991"/>
</svg>
