<svg width="20" height="20" viewBox="0 0 20 20" fill="none" xmlns="http://www.w3.org/2000/svg">
<path d="M1.52497 1.51668L2.39997 0.758343C2.63957 0.518569 2.92407 0.32836 3.23721 0.198585C3.55035 0.0688101 3.886 0.00201416 4.22497 0.00201416C4.56394 0.00201416 4.89958 0.0688101 5.21272 0.198585C5.52587 0.32836 5.81037 0.518569 6.04997 0.758343C6.07497 0.783343 7.61663 2.79168 7.61663 2.79168C8.07399 3.27278 8.32902 3.91121 8.32902 4.57501C8.32902 5.23881 8.07399 5.87724 7.61663 6.35834L6.64997 7.57501C7.86663 10.3333 9.7583 12.2333 12.425 13.3667L13.6416 12.3917C14.1208 11.9305 14.7599 11.6729 15.425 11.6729C16.09 11.6729 16.7292 11.9305 17.2083 12.3917C17.2083 12.3917 19.2166 13.9333 19.2416 13.9583C20.25 14.9667 20.25 16.6 19.2833 17.5667L18.45 18.525C17.4916 19.4833 16.2 20.0083 14.8 20.0083C8.4333 20.0083 -3.24249e-05 11.5667 -3.24249e-05 5.20834C-3.24249e-05 3.81668 0.524967 2.51668 1.52497 1.52501V1.51668ZM14.8 18.3333C15.75 18.3333 16.625 17.9833 17.225 17.375L18.0583 16.4167C18.2234 16.2508 18.3189 16.0281 18.3251 15.7941C18.3313 15.5602 18.2478 15.3327 18.0916 15.1583C18.0916 15.1583 16.1 13.625 16.075 13.6C15.7333 13.2583 15.1333 13.2583 14.7833 13.6C14.7583 13.625 13.0833 14.9667 13.0833 14.9667C12.85 15.15 12.5416 15.2 12.2666 15.0917C8.81663 13.775 6.34163 11.3083 4.91663 7.75001C4.8083 7.47501 4.84997 7.15834 5.04163 6.91668C5.04163 6.91668 6.3833 5.23334 6.39997 5.21668C6.7583 4.85834 6.7583 4.28334 6.39997 3.92501C6.37497 3.90001 4.84163 1.90834 4.84163 1.90834C4.4833 1.58334 3.92497 1.59168 3.54163 1.97501L2.66664 2.73334C2.02497 3.37501 1.66664 4.25001 1.66664 5.20001C1.66664 11 9.8083 18.3333 14.8 18.3333Z" fill="#479991"/>
</svg>
