<svg width="18" height="20" viewBox="0 0 18 20" fill="none" xmlns="http://www.w3.org/2000/svg">
<path fill-rule="evenodd" clip-rule="evenodd" d="M10.475 0.387846C10.0307 0.116886 9.52037 -0.0264587 8.99999 -0.0264587C8.47961 -0.0264587 7.96929 0.116886 7.52502 0.387846L5.82376 1.42773C5.69502 1.50686 5.5533 1.56257 5.40514 1.5923L2.27417 2.21767C1.63284 2.34586 1.05575 2.69232 0.641113 3.1981C0.226477 3.70388 -8.06678e-05 4.33771 2.15459e-08 4.99173V8.78612C2.15459e-08 14.0802 3.60308 18.6943 8.73873 19.978C8.90948 20.0212 9.08948 20.0212 9.26022 19.978C11.7562 19.3541 13.9731 17.9137 15.5565 15.8858C17.1399 13.8579 17.9999 11.3589 18 8.78612V4.99173C18.0001 4.33771 17.7735 3.70388 17.3589 3.1981C16.9442 2.69232 16.3671 2.34586 15.7258 2.21767L12.5948 1.5923C12.4467 1.56257 12.305 1.50686 12.1762 1.42773L10.475 0.387846ZM8.99999 18.4516C11.1364 17.8912 13.027 16.6387 14.3761 14.89C15.7253 13.1413 16.4571 10.9948 16.4571 8.78612V4.99173C16.4572 4.69443 16.3542 4.4063 16.1657 4.17638C15.9773 3.94647 15.7149 3.78897 15.4234 3.7307L12.2924 3.1043C11.9667 3.03968 11.655 2.91779 11.3719 2.7443L9.67062 1.70442C9.46859 1.58131 9.23657 1.51619 8.99999 1.51619C8.76341 1.51619 8.53139 1.58131 8.32936 1.70442L6.62811 2.7443C6.34495 2.91779 6.03327 3.03968 5.70754 3.1043L2.57657 3.7307C2.28504 3.78897 2.02271 3.94647 1.83424 4.17638C1.64577 4.4063 1.5428 4.69443 1.54286 4.99173V8.78612C1.54287 10.9948 2.27466 13.1413 3.62384 14.89C4.97303 16.6387 6.86357 17.8912 8.99999 18.4516Z" fill="#479991"/>
<path fill-rule="evenodd" clip-rule="evenodd" d="M7.9714 10.9677L11.5405 7.3996C11.6121 7.32801 11.6971 7.27123 11.7906 7.23248C11.8842 7.19374 11.9844 7.1738 12.0857 7.1738C12.1869 7.1738 12.2872 7.19374 12.3807 7.23248C12.4742 7.27123 12.5592 7.32801 12.6308 7.3996C12.7024 7.47119 12.7592 7.55618 12.7979 7.64972C12.8367 7.74325 12.8566 7.8435 12.8566 7.94475C12.8566 8.04599 12.8367 8.14624 12.7979 8.23977C12.7592 8.33331 12.7024 8.4183 12.6308 8.48989L8.51654 12.6042C8.44499 12.6758 8.36001 12.7327 8.26647 12.7715C8.17293 12.8102 8.07266 12.8302 7.9714 12.8302C7.87013 12.8302 7.76986 12.8102 7.67632 12.7715C7.58278 12.7327 7.49781 12.6758 7.42625 12.6042L5.8834 11.0613C5.81181 10.9897 5.75502 10.9047 5.71628 10.8112C5.67753 10.7177 5.65759 10.6174 5.65759 10.5162C5.65759 10.4149 5.67753 10.3147 5.71628 10.2211C5.75502 10.1276 5.81181 10.0426 5.8834 9.97103C5.95499 9.89944 6.03998 9.84265 6.13351 9.80391C6.22705 9.76516 6.3273 9.74522 6.42854 9.74522C6.52978 9.74522 6.63003 9.76516 6.72357 9.80391C6.81711 9.84265 6.90209 9.89944 6.97368 9.97103L7.9714 10.9677Z" fill="#479991"/>
</svg>
