<svg width="18" height="20" viewBox="0 0 18 20" fill="none" xmlns="http://www.w3.org/2000/svg">
<path d="M16.0475 3.79581L9.40496 0.104973C9.28109 0.0360898 9.1417 -6.10352e-05 8.99996 -6.10352e-05C8.85822 -6.10352e-05 8.71883 0.0360898 8.59496 0.104973L1.95246 3.79581C1.5628 4.0123 1.23811 4.32904 1.01202 4.71322C0.78594 5.0974 0.66669 5.53504 0.666626 5.98081V15.8333C0.667949 16.938 1.10736 17.997 1.88848 18.7781C2.66959 19.5592 3.72863 19.9986 4.83329 20H13.1666C14.2713 19.9986 15.3303 19.5592 16.1114 18.7781C16.8926 17.997 17.332 16.938 17.3333 15.8333V5.98081C17.3332 5.53504 17.214 5.0974 16.9879 4.71322C16.7618 4.32904 16.4371 4.0123 16.0475 3.79581ZM15.6666 15.8333C15.6666 16.4963 15.4032 17.1322 14.9344 17.6011C14.4656 18.0699 13.8297 18.3333 13.1666 18.3333H4.83329C4.17025 18.3333 3.53437 18.0699 3.06553 17.6011C2.59668 17.1322 2.33329 16.4963 2.33329 15.8333V5.98081C2.33292 5.83174 2.37254 5.6853 2.44803 5.55676C2.52351 5.42821 2.6321 5.32227 2.76246 5.24997L8.99996 1.78664L15.2383 5.24997C15.3685 5.32238 15.4769 5.42837 15.5522 5.5569C15.6276 5.68544 15.6671 5.83182 15.6666 5.98081V15.8333Z" fill="#479991"/>
<path d="M9 7.08331C9.69036 7.08331 10.25 6.52367 10.25 5.83331C10.25 5.14296 9.69036 4.58331 9 4.58331C8.30964 4.58331 7.75 5.14296 7.75 5.83331C7.75 6.52367 8.30964 7.08331 9 7.08331Z" fill="#479991"/>
</svg>
