<svg width="24" height="22" viewBox="0 0 24 22" fill="none" xmlns="http://www.w3.org/2000/svg">
<path fill-rule="evenodd" clip-rule="evenodd" d="M21.2077 16.3719C21.278 16.4422 21.3175 16.5377 21.3174 16.6371C21.3174 16.7366 21.2778 16.832 21.2074 16.9023C21.137 16.9726 21.0416 17.0121 20.9421 17.012C20.8427 17.0119 20.7473 16.9724 20.677 16.902L19.725 15.95V18.9632C19.725 19.0626 19.6855 19.158 19.6152 19.2283C19.5448 19.2986 19.4495 19.3382 19.35 19.3382C19.2505 19.3382 19.1552 19.2986 19.0848 19.2283C19.0145 19.158 18.975 19.0626 18.975 18.9632V15.95L18.023 16.9018C17.9519 16.9682 17.8578 17.0043 17.7606 17.0027C17.6634 17.001 17.5707 16.9616 17.5019 16.8929C17.4332 16.8242 17.3938 16.7314 17.3921 16.6342C17.3904 16.537 17.4266 16.4429 17.4929 16.3719L19.0847 14.7796C19.1552 14.7093 19.2506 14.6698 19.3501 14.6698C19.4496 14.6698 19.5451 14.7093 19.6155 14.7796L21.2077 16.3719ZM23.2211 17.4738C23.2828 16.9655 23.2438 16.45 23.1062 15.9567C22.9687 15.4635 22.7354 15.0021 22.4195 14.599C22.1037 14.196 21.7115 13.8591 21.2655 13.6076C20.8194 13.356 20.3282 13.1949 19.8198 13.1332C19.6613 13.114 19.5018 13.1042 19.3422 13.104C18.5913 13.1055 17.8569 13.3238 17.2271 13.7326C16.5974 14.1414 16.099 14.7233 15.7919 15.4084C15.4848 16.0936 15.382 16.8528 15.4959 17.595C15.6098 18.3371 15.9355 19.0306 16.434 19.5921C16.9324 20.1536 17.5824 20.5592 18.3058 20.7603C19.0292 20.9614 19.7952 20.9494 20.512 20.7257C21.2287 20.502 21.8656 20.0761 22.3462 19.4992C22.8267 18.9224 23.1305 18.219 23.2211 17.4737V17.4738ZM2.94994 19.016H15.1576C14.7792 18.2276 14.6308 17.3484 14.7296 16.4795C14.8283 15.6105 15.1703 14.7871 15.716 14.1037C16.2618 13.4204 16.9893 12.9049 17.8149 12.6164C18.6405 12.328 19.5307 12.2783 20.3833 12.4731V9.51775L17.9138 7.04777L12.7909 10.7407L14.3182 11.8112C14.3595 11.8391 14.395 11.8748 14.4224 11.9165C14.4498 11.9582 14.4686 12.0049 14.4777 12.0539C14.4868 12.1029 14.4861 12.1533 14.4755 12.202C14.4649 12.2508 14.4447 12.2969 14.4161 12.3377C14.3875 12.3786 14.351 12.4133 14.3088 12.4399C14.2666 12.4664 14.2195 12.4843 14.1703 12.4925C14.1211 12.5006 14.0708 12.4989 14.0223 12.4874C13.9738 12.4758 13.9281 12.4547 13.8878 12.4253L6.19092 7.03L0.75 11.6313V16.8156C0.75062 17.3989 0.982565 17.9581 1.39495 18.3705C1.80734 18.783 2.36649 19.0151 2.94975 19.0158L2.94994 19.016ZM2.94994 1.099H18.1834C18.7666 1.09961 19.3258 1.33157 19.7383 1.744C20.1507 2.15643 20.3827 2.71562 20.3833 3.29889V8.45692L18.2185 6.29233C18.1555 6.22929 18.0722 6.19072 17.9834 6.18351C17.8946 6.17629 17.8061 6.20091 17.7337 6.25295L12.1406 10.2851L6.38484 6.25009C6.31695 6.20262 6.23526 6.17893 6.1525 6.18273C6.06974 6.18653 5.99056 6.2176 5.9273 6.27109L0.75 10.6494V3.29889C0.750596 2.71561 0.982565 2.1564 1.395 1.74396C1.80744 1.33152 2.36666 1.09955 2.94994 1.09895V1.099ZM23.0097 14.1368C22.5179 13.5076 21.8714 13.0166 21.1332 12.7118V3.29889C21.1324 2.5168 20.8213 1.76699 20.2683 1.21396C19.7153 0.660939 18.9655 0.349868 18.1834 0.348999H2.94994C2.16783 0.349843 1.418 0.660903 0.864965 1.21393C0.311929 1.76696 0.000856136 2.51678 0 3.29889V16.8158C0.000880663 17.5979 0.311941 18.3478 0.86495 18.9009C1.41796 19.454 2.16776 19.7651 2.94989 19.7661H15.6108C15.6367 19.8013 15.6635 19.8364 15.6905 19.8709C16.067 20.3515 16.5345 20.7532 17.0663 21.0532C17.598 21.3531 18.1836 21.5453 18.7897 21.6189C19.3958 21.6925 20.0104 21.646 20.5985 21.4821C21.1865 21.3181 21.7366 21.04 22.2172 20.6635C22.6977 20.2869 23.0995 19.8195 23.3994 19.2877C23.6993 18.7559 23.8915 18.1703 23.9651 17.5643C24.0387 16.9582 23.9922 16.3436 23.8283 15.7555C23.6643 15.1674 23.3862 14.6174 23.0097 14.1368ZM11.8238 3.76375C12.1638 3.76374 12.4962 3.86455 12.7789 4.05343C13.0616 4.24231 13.2819 4.51077 13.412 4.82487C13.5421 5.13898 13.5762 5.48461 13.5099 5.81806C13.4435 6.15152 13.2798 6.45782 13.0394 6.69823C12.799 6.93865 12.4927 7.10237 12.1593 7.16871C11.8258 7.23505 11.4802 7.20101 11.1661 7.07092C10.852 6.94082 10.5835 6.7205 10.3946 6.43781C10.2057 6.15513 10.1049 5.82278 10.1049 5.4828C10.1055 5.0271 10.2868 4.59024 10.6091 4.26801C10.9313 3.94578 11.3681 3.76448 11.8238 3.76384V3.76375ZM11.8238 7.95161C11.3355 7.95162 10.8582 7.80683 10.4522 7.53555C10.0462 7.26426 9.72971 6.87868 9.54284 6.42754C9.35596 5.97641 9.30707 5.48 9.40232 5.00107C9.49758 4.52215 9.73272 4.08223 10.078 3.73694C10.4233 3.39165 10.8632 3.15651 11.3421 3.06124C11.821 2.96597 12.3175 3.01486 12.7686 3.20173C13.2197 3.38859 13.6053 3.70504 13.8766 4.11105C14.1479 4.51706 14.2927 4.9944 14.2927 5.4827C14.2919 6.13726 14.0316 6.76479 13.5688 7.22763C13.1059 7.69047 12.4784 7.95084 11.8238 7.95161Z" fill="#777777"/>
</svg>
