<svg width="14" height="14" viewBox="0 0 14 14" fill="none" xmlns="http://www.w3.org/2000/svg">
<g clip-path="url(#clip0_1816_3825)">
<path d="M9.10041 5.61458C9.98442 4.80862 11.1799 3.71859 11.2888 1.1145H12.0781V0.333252H1.92189V1.1145H2.71119C2.82015 3.71859 4.01561 4.80862 4.89962 5.61458C5.49262 6.15523 5.82814 6.48614 5.82814 6.99992C5.82814 7.51369 5.49262 7.84461 4.89962 8.38526C4.01561 9.19122 2.82015 10.2812 2.71119 12.8853H1.92189V13.6666H12.0781V12.8853H11.2888C11.1799 10.2812 9.98442 9.19122 9.10041 8.38526C8.50741 7.84461 8.17189 7.51369 8.17189 6.99992C8.17189 6.48614 8.50741 6.15523 9.10041 5.61458ZM6.60939 9.92799C6.48749 9.9531 6.36824 9.98968 6.25322 10.0372L3.86059 11.0273C4.25132 10.0338 4.88064 9.45979 5.42598 8.9626C6.03457 8.40773 6.60939 7.88364 6.60939 6.99992V9.92799ZM8.57405 8.9626C9.11939 9.45979 9.74869 10.0338 10.1394 11.0273L7.74681 10.0372C7.6318 9.98965 7.51254 9.95308 7.39064 9.92797V6.99992C7.39064 7.88364 7.96546 8.40773 8.57405 8.9626ZM3.84686 2.93742C3.65798 2.44526 3.52754 1.85101 3.4934 1.1145H10.5066C10.4725 1.85101 10.342 2.44526 10.1531 2.93742H3.84686Z" fill="#777777"/>
</g>
<defs>
<clipPath id="clip0_1816_3825">
<rect width="13.3333" height="13.3333" fill="white" transform="translate(0.333328 0.333374)"/>
</clipPath>
</defs>
</svg>
